<?xml version="1.0" standalone="no"?>
<!DOCTYPE svg PUBLIC "-//W3C//DTD SVG 20010904//EN"
 "http://www.w3.org/TR/2001/REC-SVG-20010904/DTD/svg10.dtd">
<svg version="1.0" xmlns="http://www.w3.org/2000/svg"
 width="960.000000pt" height="960.000000pt" viewBox="0 0 960.000000 960.000000"
 preserveAspectRatio="xMidYMid meet">
<metadata>
Created by potrace 1.14, written by Peter Selinger 2001-2017
</metadata>
<g transform="translate(0.000000,960.000000) scale(0.100000,-0.100000)"
fill="#000000" stroke="none">
<path d="M0 9499 c0 -113 -6 -108 80 -72 84 34 238 64 360 70 134 6 258 -5
455 -39 68 -12 167 -22 230 -22 101 -1 115 1 170 27 66 31 109 67 131 110 l15
27 -721 0 -720 0 0 -101z"/>
<path d="M1458 9550 c-16 -27 -47 -63 -69 -80 -48 -35 -34 -39 31 -9 51 23 95
61 116 101 19 37 19 38 -18 38 -29 0 -36 -6 -60 -50z"/>
<path d="M1582 9568 c-30 -84 -116 -149 -228 -173 -121 -26 -232 -18 -569 40
-234 40 -389 40 -569 0 -59 -14 -204 -60 -212 -67 -1 -2 59 -4 134 -4 76 -1
245 -11 377 -23 429 -37 478 -41 615 -41 204 0 322 31 555 146 70 35 133 74
167 104 l53 49 -155 1 -156 0 -12 -32z"/>
<path d="M1910 9557 c-63 -73 -215 -159 -405 -229 l-80 -29 125 5 c69 3 162
12 206 20 151 27 342 143 362 219 15 53 8 57 -87 56 l-86 -1 -35 -41z"/>
<path d="M2148 9556 c-6 -53 -34 -91 -100 -136 -27 -18 -48 -35 -48 -36 0 -2
26 8 58 21 95 42 191 116 218 168 l15 27 -69 0 -69 0 -5 -44z"/>
<path d="M2320 9586 c0 -20 -53 -82 -109 -127 -96 -77 -266 -138 -474 -171
-131 -21 -805 -17 -1027 5 -411 42 -654 56 -694 41 -14 -5 -16 -33 -16 -203
l0 -198 47 -22 c67 -31 149 -51 210 -51 29 0 117 11 195 25 240 43 503 35 694
-21 244 -70 456 -244 480 -392 8 -49 -23 -120 -64 -152 -44 -34 -182 -161
-239 -220 -64 -67 -113 -161 -120 -235 -5 -46 -2 -60 21 -99 79 -135 252 -194
436 -147 96 24 353 145 438 207 2 1 -1 11 -7 23 -35 65 -53 324 -32 461 14 98
29 167 39 187 6 10 20 45 32 78 12 33 33 77 46 97 13 21 24 40 24 44 0 7 89
130 125 173 50 59 214 184 305 231 54 27 100 47 103 43 4 -3 13 -1 20 6 39 32
289 73 407 66 79 -4 197 -23 219 -34 9 -5 35 -12 59 -16 23 -4 42 -11 42 -16
0 -5 7 -9 15 -9 24 0 125 -48 125 -59 0 -6 8 -11 18 -11 23 0 101 -51 150 -97
20 -19 43 -38 51 -42 34 -19 162 -179 192 -240 18 -36 41 -77 51 -90 10 -13
18 -33 18 -45 0 -11 7 -29 15 -39 7 -11 17 -38 20 -60 4 -23 11 -47 16 -52 4
-6 11 -35 14 -65 27 -236 22 -325 -34 -535 -4 -17 -16 -48 -26 -70 -21 -48
-50 -114 -59 -135 -8 -19 -71 -110 -91 -131 -8 -9 -15 -19 -15 -24 0 -11 -180
-190 -180 -179 0 5 -5 1 -11 -8 -5 -10 -16 -18 -24 -18 -8 0 -17 -5 -20 -10
-4 -7 2 -9 19 -4 26 6 37 -8 16 -21 -6 -4 -8 -12 -4 -18 3 -7 -1 -3 -10 7 -13
16 -18 17 -31 6 -8 -7 -15 -18 -15 -25 0 -13 -41 -35 -65 -35 -8 0 -15 -9 -15
-20 0 -11 -5 -20 -11 -20 -5 0 -8 4 -5 9 3 5 -1 12 -10 15 -22 8 -24 8 -18 -7
6 -17 -21 -41 -37 -32 -8 6 -9 -2 -4 -26 7 -30 6 -32 -9 -17 -9 9 -16 24 -16
33 0 9 -5 15 -11 13 -13 -4 -13 -4 3 -46 7 -18 17 -31 23 -28 5 2 11 -7 11
-20 1 -13 -2 -24 -7 -24 -5 0 -9 -4 -9 -9 0 -18 109 -59 186 -71 98 -15 167
-9 399 36 232 45 364 57 590 52 169 -3 209 -8 192 -24 -3 -3 -104 -6 -224 -5
-140 0 -252 -4 -313 -13 l-95 -15 95 7 c214 15 487 -3 477 -32 -5 -12 -29 -12
-171 2 -132 13 -511 -17 -611 -48 -50 -15 -183 -31 -310 -37 -161 -7 -264 20
-361 94 -30 22 -86 96 -90 118 -1 6 -7 21 -13 35 -11 24 -11 24 -7 -5 7 -46
-8 -62 -25 -28 -14 28 -14 28 -119 29 -170 3 -220 6 -215 14 4 7 -62 31 -95
35 -8 1 -25 7 -37 13 -13 7 -23 10 -23 6 0 -3 -7 -1 -15 6 -8 6 -23 9 -35 5
-13 -4 -22 -1 -26 9 -3 9 -10 14 -14 11 -13 -8 -60 13 -60 27 0 7 -14 21 -30
30 -17 9 -30 12 -30 7 0 -17 -23 -4 -26 14 -4 26 -64 75 -109 88 -11 3 -19 10
-18 15 1 5 -51 9 -115 9 -110 0 -120 2 -164 27 -82 49 -104 93 -74 151 14 26
14 27 -7 22 -230 -50 -290 -59 -402 -59 -99 -1 -133 3 -194 22 -209 66 -292
209 -233 400 31 99 92 178 212 275 21 17 27 26 15 22 -75 -26 -141 -38 -210
-39 -151 -1 -224 40 -232 131 -5 42 -1 53 22 81 48 57 96 74 191 70 69 -2 86
-7 106 -25 14 -13 31 -23 39 -23 26 0 59 39 59 69 0 53 -31 132 -68 173 l-36
40 -9 -31 c-5 -20 -22 -40 -47 -57 -37 -25 -46 -26 -114 -21 -93 7 -116 18
-116 57 0 31 14 40 23 16 3 -8 20 -17 37 -21 44 -10 70 16 70 68 0 83 -101
133 -254 125 -131 -7 -210 -49 -368 -195 -108 -100 -264 -162 -406 -163 l-53
0 20 -26 c38 -48 15 -173 -38 -206 l-21 -13 0 -1564 0 -1563 23 7 c52 16 405
17 592 1 222 -19 354 -20 440 -5 209 36 302 196 176 302 -76 64 -281 95 -361
54 -77 -38 -105 -135 -54 -182 36 -33 83 -45 182 -45 129 0 172 26 172 105 0
58 -66 105 -148 105 -23 0 -82 -49 -82 -67 0 -19 42 -53 65 -53 52 0 74 28 38
49 -10 5 -14 13 -10 17 10 10 37 -6 51 -29 28 -44 -52 -81 -117 -54 -48 21
-62 55 -41 101 23 48 65 69 117 61 107 -18 157 -59 157 -129 0 -54 -17 -85
-60 -110 -30 -18 -52 -21 -150 -21 -100 0 -121 3 -157 23 -59 31 -77 61 -71
120 15 154 195 204 413 116 72 -30 109 -64 131 -121 13 -32 24 -45 43 -49 64
-14 95 -29 150 -70 97 -73 112 -139 50 -224 l-29 -39 38 -7 c74 -13 130 -60
176 -148 41 -77 31 -135 -34 -210 -61 -69 -172 -106 -320 -106 -189 0 -320 76
-320 185 0 34 7 48 40 82 45 48 85 62 185 70 89 7 149 -9 191 -51 41 -41 52
-80 30 -105 -22 -24 -119 -51 -183 -51 -105 0 -161 83 -83 122 38 19 125 24
135 8 4 -6 -11 -10 -39 -10 -87 0 -131 -36 -87 -72 47 -37 231 -10 239 36 2
10 -8 31 -23 46 -76 79 -297 58 -354 -34 -28 -44 -16 -82 38 -123 57 -44 137
-66 241 -66 144 0 254 44 306 123 33 50 30 105 -10 168 -60 95 -157 130 -271
97 -76 -22 -241 -16 -400 15 -87 18 -146 22 -285 22 -272 0 -477 -30 -657 -97
l-73 -27 0 -489 0 -489 60 0 c94 0 207 -50 253 -112 15 -20 19 -41 18 -88 -3
-130 -72 -181 -247 -184 l-84 -1 0 -120 0 -120 33 -22 c45 -31 139 -53 222
-53 l70 1 -43 21 c-51 25 -91 70 -94 106 -4 73 7 98 70 166 39 43 48 47 102
53 56 5 60 4 89 -25 52 -51 40 -100 -27 -106 -62 -7 -93 30 -49 58 9 6 20 6
24 2 4 -5 2 -11 -4 -13 -20 -7 -15 -23 6 -23 10 0 24 7 31 16 11 13 9 19 -12
40 -21 22 -31 24 -62 19 -49 -10 -70 -42 -63 -97 3 -23 14 -53 25 -67 22 -30
82 -67 132 -81 58 -16 365 -51 530 -60 312 -17 478 -80 647 -243 123 -118 135
-214 46 -354 -37 -58 -41 -78 -17 -87 28 -11 117 -6 189 9 39 8 111 15 161 15
214 0 447 -109 515 -242 23 -46 20 -70 -16 -128 -46 -73 -119 -110 -217 -110
-27 0 -48 -4 -48 -10 0 -5 -16 -27 -35 -48 -19 -22 -31 -43 -27 -47 4 -5 2 -5
-4 -2 -6 3 -32 0 -59 -8 -71 -22 -177 -19 -224 5 -42 21 -91 73 -91 96 0 8 -4
14 -10 14 -27 0 -25 -163 3 -216 23 -45 75 -91 142 -129 79 -44 146 -53 525
-75 96 -6 202 -15 235 -21 237 -43 420 -151 459 -271 24 -75 21 -118 -12 -164
-84 -116 -237 -172 -515 -190 -84 -5 -113 -11 -130 -26 -21 -18 -15 -18 288
-16 288 3 317 1 413 -19 56 -13 136 -34 177 -48 41 -13 82 -22 92 -19 13 4 14
3 5 -3 -9 -7 -1 -17 30 -40 24 -17 56 -44 72 -59 19 -19 30 -25 33 -16 3 6 9
9 15 6 7 -4 6 -9 -2 -14 -9 -6 -6 -15 13 -35 l25 -28 0 35 c0 49 14 72 75 118
71 53 129 65 285 56 116 -6 122 -5 122 13 0 58 -82 90 -365 142 -321 58 -365
71 -385 119 -20 48 -3 89 64 155 33 33 60 63 58 68 -1 5 2 6 8 2 5 -3 22 2 38
13 15 11 37 23 50 27 22 6 23 7 5 21 -17 14 -17 14 3 5 17 -8 32 -5 70 13 27
12 72 31 101 41 29 10 49 23 46 28 -3 6 -1 7 5 3 6 -3 53 5 104 18 51 13 111
27 133 30 140 22 177 32 236 63 81 42 113 73 104 101 -8 27 -77 42 -141 31
-71 -11 -76 -11 -72 8 4 22 84 43 169 43 60 0 70 -3 113 -35 36 -28 46 -42 46
-65 l0 -30 -41 45 c-47 51 -66 58 -41 16 15 -28 15 -30 -8 -64 -14 -20 -40
-45 -60 -56 l-35 -21 80 7 c82 6 98 15 91 46 -2 9 0 15 4 12 5 -3 9 -23 8 -44
l0 -38 -112 -12 c-152 -17 -413 -65 -516 -95 -233 -68 -435 -190 -471 -283 -9
-25 -7 -31 16 -50 14 -13 30 -23 36 -23 12 0 12 17 -1 25 -5 3 -10 21 -10 39
0 64 66 108 235 159 295 87 482 131 655 153 162 20 170 19 170 -12 0 -14 -3
-23 -7 -21 -22 14 -502 -59 -521 -78 -5 -4 478 4 515 9 23 3 36 -13 25 -31 -4
-5 -101 -10 -237 -12 -251 -3 -439 -14 -525 -31 -121 -25 -140 -31 -204 -60
-44 -19 -65 -34 -60 -41 4 -7 3 -9 -4 -5 -15 9 -20 -23 -9 -57 12 -36 60 -60
120 -59 26 0 45 -3 43 -7 -5 -7 94 -19 409 -52 114 -11 262 -41 297 -60 19
-10 19 -12 3 -29 -15 -17 -21 -18 -44 -6 -34 17 -104 34 -161 40 -25 3 -58 7
-75 9 -16 2 -23 2 -16 0 8 -3 51 -28 95 -56 45 -27 86 -50 93 -50 7 0 9 -5 6
-10 -4 -6 0 -8 11 -4 13 5 15 3 7 -12 -6 -10 -18 -21 -26 -25 -9 -3 -14 -2
-11 3 3 5 -9 20 -28 34 l-34 26 -6 -38 c-8 -50 -27 -55 -148 -40 -161 19 -265
-6 -330 -80 -27 -30 -30 -39 -24 -76 3 -24 13 -62 22 -86 40 -109 40 -131 -3
-211 -2 -3 14 -9 37 -13 32 -5 46 -3 61 11 20 18 20 17 5 -11 l-16 -30 -102
-1 c-146 -2 -188 -8 -316 -44 -128 -36 -185 -35 -225 3 -48 47 -18 90 110 157
34 19 60 37 57 42 -3 4 1 5 9 3 15 -6 141 86 151 110 4 10 2 14 -5 9 -7 -4 -9
0 -5 14 16 51 -140 129 -351 175 -86 19 -129 21 -353 21 -207 0 -267 -3 -318
-17 -35 -9 -102 -22 -150 -29 -106 -14 -383 -18 -375 -5 3 5 -47 6 -123 2
-182 -10 -293 14 -331 72 -36 55 28 100 202 142 155 37 175 43 168 54 -3 6 -1
7 5 3 12 -7 72 19 83 36 3 5 9 9 13 9 18 -3 18 0 0 15 -18 14 -18 15 4 4 20
-10 31 -5 87 35 35 25 67 50 70 55 8 13 -17 60 -51 94 -33 32 -70 53 -107 60
-14 2 -34 9 -45 15 -31 16 -187 41 -261 41 -71 0 -298 -27 -506 -59 -71 -12
-171 -21 -222 -21 l-92 0 9 -29 c19 -66 -33 -158 -108 -193 -81 -37 -238 -20
-306 33 -21 16 -26 29 -26 62 1 97 88 157 206 142 51 -6 64 -12 96 -46 48 -51
50 -82 5 -109 -41 -26 -81 -25 -123 1 -35 21 -46 49 -19 49 8 0 15 -4 15 -9 0
-18 67 -42 92 -32 47 18 52 36 19 74 -27 30 -39 35 -90 41 -50 6 -67 3 -101
-14 -44 -22 -76 -76 -65 -109 10 -34 83 -64 166 -69 67 -4 82 -1 119 19 48 27
90 91 90 137 0 21 -10 40 -31 62 -63 63 -75 65 -279 63 l-185 -3 -23 -27 c-50
-59 -67 -112 -67 -208 1 -72 5 -98 22 -131 78 -148 174 -174 553 -154 370 21
623 -16 727 -104 50 -42 77 -107 70 -172 -3 -30 -2 -54 4 -54 5 0 9 -8 9 -19
0 -10 16 -50 35 -89 116 -231 435 -342 820 -287 110 15 175 30 339 75 61 16
135 32 165 36 95 10 291 -37 317 -77 5 -8 14 -32 19 -54 l11 -40 64 -6 c55 -5
68 -11 92 -38 27 -30 30 -31 115 -31 l88 1 225 240 c124 131 245 261 269 287
80 85 393 416 421 445 24 26 44 32 179 57 211 40 325 52 476 48 l130 -3 33
-94 c44 -129 78 -311 111 -601 l8 -75 -120 -135 c-67 -74 -127 -143 -135 -152
-14 -17 -10 -18 64 -17 l79 0 110 124 c61 69 111 131 113 140 4 17 -4 16 132
15 199 -2 456 26 735 80 212 41 391 97 604 189 52 23 98 41 101 41 4 0 17 -35
30 -77 32 -110 81 -227 158 -380 l66 -133 66 0 67 0 -92 183 c-204 407 -268
727 -235 1182 30 413 83 803 194 1450 27 158 51 404 42 438 -3 12 -53 94 -111
182 -283 426 -375 732 -375 1240 0 259 8 365 27 365 33 0 518 -149 723 -221
130 -47 448 -174 620 -248 l115 -50 7 -43 c4 -24 24 -142 44 -263 60 -365 175
-777 333 -1195 91 -243 141 -354 265 -595 157 -303 444 -834 462 -854 2 -2 4
208 4 466 0 370 -3 470 -12 470 -7 0 -26 4 -43 8 -28 8 -29 7 -15 -9 9 -12 14
-38 14 -72 -2 -86 -62 -152 -149 -162 -41 -4 -45 -3 -55 22 -14 37 -13 43 3
22 11 -16 18 -16 55 -7 24 7 57 27 77 47 31 31 35 40 35 87 0 63 -17 87 -83
122 -54 28 -61 30 -51 13 4 -7 3 -8 -5 -4 -6 4 -9 11 -7 15 7 10 -48 63 -57
56 -4 -3 -5 -2 -2 2 3 3 -6 20 -18 37 -27 36 -57 118 -57 155 0 72 60 192 131
266 l39 41 -53 0 c-122 0 -175 117 -71 160 81 34 147 25 165 -22 18 -48 -3
-64 -89 -65 -55 -2 -84 13 -75 37 8 21 73 19 73 -2 0 -12 6 -15 23 -10 12 3
25 6 30 6 4 0 7 7 7 15 0 32 -105 32 -141 -1 -26 -23 -24 -39 7 -63 52 -41
179 -15 218 44 23 35 10 31 -21 -5 -13 -17 -30 -30 -35 -30 -6 0 -4 8 4 18 9
9 21 27 27 40 17 32 -4 62 -66 99 -68 40 -135 37 -277 -11 -90 -30 -120 -36
-174 -34 -41 2 -67 8 -70 16 -3 9 14 12 63 12 49 0 93 9 169 34 57 19 125 38
152 41 95 13 183 -29 222 -105 12 -24 22 -38 22 -30 0 7 -9 33 -21 56 -15 32
-32 49 -67 66 -50 24 -89 26 -397 20 -128 -3 -178 6 -183 32 -3 15 0 17 14 11
31 -13 149 -18 262 -10 l107 8 -80 27 c-155 52 -208 86 -223 143 -12 45 8 79
63 110 71 40 136 50 296 45 135 -4 148 -6 203 -34 32 -16 71 -44 87 -62 l29
-33 0 90 0 89 -57 21 c-467 165 -579 215 -693 308 -101 82 -154 164 -190 294
-24 88 -25 141 -5 223 24 94 26 95 40 30 17 -78 55 -159 97 -205 80 -87 240
-166 418 -205 76 -16 271 -26 348 -17 l42 5 0 49 0 49 -38 -19 c-121 -61 -318
-46 -477 37 -91 48 -198 152 -215 209 -36 118 57 213 255 259 66 16 115 19
278 17 l197 -2 0 169 0 169 -42 5 c-24 3 -59 7 -78 9 -19 3 -71 -2 -115 -10
-113 -22 -289 -13 -370 17 -69 27 -163 84 -171 105 -12 31 8 35 40 7 75 -66
194 -102 336 -102 115 0 186 11 308 46 88 26 92 29 92 56 0 15 -1 28 -3 28 -2
0 -43 -9 -93 -21 -126 -29 -355 -37 -447 -15 -73 17 -145 51 -192 90 -39 31
-26 45 17 18 171 -108 348 -123 646 -55 l72 17 0 2083 0 2083 -3640 0 c-3066
0 -3640 -2 -3640 -14z m4980 -837 c9 -16 8 -24 -4 -38 -9 -10 -16 -25 -16 -34
0 -9 -6 -17 -14 -17 -24 0 -28 -18 -11 -50 21 -41 16 -60 -20 -80 -42 -23 -43
-57 -5 -106 21 -26 40 -39 57 -39 38 -1 61 -56 28 -69 -21 -8 -19 -32 5 -56
11 -11 17 -26 14 -35 -7 -18 -16 -19 -32 -3 -8 8 -14 4 -22 -18 -29 -75 -100
-98 -157 -50 -39 32 -72 48 -83 41 -13 -8 -50 3 -50 15 0 12 29 40 41 40 6 0
20 -11 32 -24 34 -35 84 -57 125 -54 47 4 87 56 78 103 -9 44 -24 53 -35 22
-12 -31 -18 -33 -49 -11 -40 28 -21 105 22 88 22 -9 20 12 -5 53 -15 24 -27
33 -39 30 -12 -3 -20 2 -23 14 -4 13 -14 19 -35 19 -16 0 -37 9 -47 20 -10 11
-13 20 -7 20 6 0 14 -4 17 -10 3 -5 17 -10 31 -10 18 0 24 5 24 20 0 18 4 20
34 15 20 -4 43 -2 56 5 18 10 21 18 16 43 -8 40 -12 43 -34 24 -24 -21 -61
-11 -73 20 -13 35 5 63 40 63 21 0 30 6 34 21 5 18 11 20 32 15 22 -6 28 -3
32 14 7 26 29 26 43 -1z m-160 -320 c0 -9 -27 -19 -50 -19 -33 0 -53 -30 -47
-72 4 -33 3 -37 -12 -29 -9 6 -36 7 -58 4 -45 -6 -93 2 -93 16 0 5 20 6 45 3
52 -5 85 15 85 54 0 36 23 51 79 50 28 -1 51 -4 51 -7z m1832 -47 c12 -10 16
-23 11 -40 -4 -16 -2 -23 4 -19 6 4 16 0 23 -8 13 -16 9 -18 -27 -15 -17 1
-21 -3 -17 -14 5 -12 0 -16 -20 -16 -24 0 -32 -13 -27 -43 1 -4 -9 -12 -22
-18 -18 -8 -36 -6 -82 10 -73 26 -111 27 -123 4 -22 -42 31 -98 106 -113 70
-13 90 -25 98 -58 4 -15 9 -30 11 -34 6 -11 60 19 72 39 10 17 10 17 11 1 0
-10 -11 -25 -25 -34 -26 -17 -33 -34 -14 -34 20 0 71 -62 60 -73 -7 -7 -25 0
-56 22 -37 27 -49 31 -60 21 -8 -7 -15 -21 -15 -31 0 -13 -5 -17 -16 -12 -25
9 -44 -24 -44 -74 0 -50 16 -87 53 -121 l25 -23 -22 -39 -21 -39 -21 26 c-25
32 -54 26 -54 -12 0 -21 -5 -25 -28 -25 -16 0 -37 7 -48 15 -18 15 -18 15 9 9
31 -7 36 9 12 37 -14 15 -14 18 0 33 19 19 35 20 70 4 32 -15 41 -6 21 24 -27
42 -30 100 -7 153 16 36 18 51 10 67 -17 32 -4 51 31 43 32 -7 35 -1 24 42 -6
24 -38 38 -99 47 -23 3 -47 14 -57 26 -31 38 -38 12 -12 -41 19 -38 24 -59 20
-84 -5 -23 -2 -38 9 -48 31 -32 5 -78 -34 -58 -26 14 -36 -1 -19 -29 10 -15
10 -25 2 -38 -29 -46 -99 -4 -110 68 -8 52 -55 96 -85 80 -10 -6 -19 -15 -19
-21 0 -6 -4 -8 -9 -5 -10 6 -3 56 11 73 11 14 45 3 90 -28 l29 -21 -3 28 c-3
25 1 29 23 32 35 4 61 -22 53 -54 -7 -28 -2 -30 20 -8 9 8 16 30 16 47 0 41
-44 109 -65 101 -28 -11 -64 23 -71 66 -4 24 -12 40 -20 40 -17 0 -18 12 -2
28 20 20 59 15 65 -8 8 -29 37 -21 41 10 8 57 79 67 145 21 64 -44 85 -48 93
-15 4 17 1 36 -10 54 -9 16 -16 36 -16 45 0 14 6 16 35 11 29 -6 34 -4 29 9
-3 8 -3 22 0 31 6 16 17 13 48 -14z m-462 -493 c0 -6 -4 -7 -10 -4 -5 3 -10
11 -10 16 0 6 5 7 10 4 6 -3 10 -11 10 -16z m-5477 -836 c-7 -2 -19 -2 -25 0
-7 3 -2 5 12 5 14 0 19 -2 13 -5z m163 0 c-7 -7 -97 -5 -105 3 -2 2 22 4 54 4
32 0 55 -3 51 -7z m4056 -160 c50 -27 98 -83 136 -158 25 -50 59 -70 104 -61
37 8 231 23 237 19 2 -1 -8 -8 -23 -14 -34 -16 -33 -29 2 -29 15 0 32 -4 39
-8 29 -18 57 -132 33 -132 -5 0 -10 16 -10 35 0 47 -18 45 -22 -2 -2 -31 -8
-39 -30 -47 -36 -13 -48 0 -20 20 30 21 29 66 -3 98 -39 39 -82 46 -163 29
-41 -9 -85 -13 -106 -9 -51 10 -94 50 -102 94 -9 55 -28 78 -78 97 -93 36
-178 -17 -211 -128 -19 -65 -15 -109 18 -202 27 -77 101 -155 147 -155 20 0
30 5 30 15 0 8 4 15 9 15 6 0 6 -12 2 -27 -10 -34 -5 -51 22 -80 25 -28 57
-30 64 -3 3 13 17 22 38 26 41 7 50 2 71 -41 18 -38 40 -51 61 -34 18 16 27 5
19 -24 -3 -13 -19 -29 -38 -38 -38 -16 -36 1 -23 -235 5 -91 4 -142 -4 -164
-6 -18 -10 -35 -8 -37 2 -2 18 2 36 8 23 8 34 19 38 40 5 25 8 27 25 18 13 -7
18 -17 15 -31 -3 -11 -1 -31 5 -44 10 -22 8 -29 -15 -52 -26 -25 -27 -25 -27
-5 0 11 -7 26 -15 33 -15 12 -55 5 -55 -11 0 -5 -7 -9 -15 -9 -8 0 -27 -19
-41 -41 -14 -23 -37 -52 -51 -65 -14 -13 -22 -28 -18 -34 12 -19 68 -3 90 25
21 25 21 25 68 9 44 -15 59 -38 18 -27 -22 6 -35 -11 -37 -49 -3 -46 -37 -102
-83 -132 -24 -16 -46 -37 -48 -46 -3 -12 -19 -20 -45 -24 -21 -4 -50 -13 -63
-22 -16 -10 -25 -12 -30 -4 -10 16 12 38 46 45 44 10 44 22 -1 30 -58 10 -39
28 21 20 45 -6 51 -5 71 20 29 35 55 60 93 90 17 13 27 26 23 30 -4 4 -14 0
-23 -9 -18 -18 -37 -23 -108 -29 -26 -3 -56 -12 -67 -22 -13 -12 -32 -16 -66
-14 -31 2 -49 -1 -52 -9 -2 -7 -21 -15 -42 -18 -37 -6 -38 -7 -33 -39 7 -42
-31 -85 -74 -85 l-28 1 30 13 c34 14 50 31 59 61 9 32 -5 42 -71 49 -35 4 -70
9 -79 13 -14 5 -16 -1 -13 -39 3 -38 1 -44 -12 -41 -9 3 -20 0 -23 -6 -4 -6
-12 -11 -18 -11 -5 0 -1 8 11 18 12 9 24 33 27 53 5 31 2 38 -22 54 -16 10
-37 29 -48 42 -17 22 -20 23 -35 9 -29 -26 -56 -19 -90 24 -17 22 -41 40 -51
40 -26 0 -89 -33 -90 -46 0 -19 -38 -23 -122 -14 -43 5 -85 7 -93 4 -10 -4
-12 0 -8 16 4 15 10 19 22 14 53 -22 91 -7 55 22 -18 14 -18 15 3 9 20 -6 22
-3 16 32 -3 21 -13 46 -21 56 -14 16 -13 17 13 17 26 0 27 -2 22 -39 -11 -86
54 -92 184 -16 59 33 89 45 121 46 39 0 46 4 73 42 19 26 50 52 84 70 30 15
58 33 63 40 14 22 8 56 -12 67 -25 13 -50 1 -83 -41 l-25 -32 -51 26 -51 25
30 11 c16 5 30 17 30 25 0 9 7 12 19 9 11 -3 38 6 60 19 40 24 44 38 11 38
-10 0 -23 7 -30 15 -7 8 -28 15 -46 15 -39 0 -99 47 -86 67 11 17 83 19 110 2
21 -13 24 -12 48 18 22 28 28 31 46 22 15 -8 27 -8 45 0 13 6 41 11 63 11 21
0 45 7 54 15 18 19 27 19 20 1 -8 -21 29 -29 100 -22 70 7 102 -4 66 -24 -19
-10 -21 -17 -16 -52 5 -29 2 -47 -10 -65 l-16 -25 34 7 c18 3 41 9 51 12 10 2
-7 -20 -38 -51 -32 -31 -61 -56 -66 -56 -17 0 -9 -19 11 -25 32 -10 12 -26
-24 -20 -23 5 -36 2 -45 -9 -7 -9 -32 -21 -55 -27 -97 -25 -156 -84 -156 -156
0 -41 18 -60 72 -74 39 -11 56 -10 110 5 70 19 152 70 186 115 107 146 121
316 36 442 -25 36 -158 119 -197 122 -10 1 -28 14 -38 29 -18 25 -24 27 -67
22 -63 -8 -101 -23 -113 -45 -5 -11 -14 -19 -20 -19 -6 0 -19 -10 -28 -21 -15
-18 -21 -20 -39 -10 -24 13 -31 34 -8 25 8 -3 21 3 30 13 44 51 63 71 77 75
12 4 11 8 -3 24 -9 10 -21 37 -27 59 -17 62 -44 99 -94 125 -38 20 -48 22 -61
11 -23 -20 -20 -34 14 -53 17 -9 30 -22 30 -28 0 -15 -39 6 -62 34 -17 19 -19
20 -31 4 -9 -12 -17 -14 -30 -6 -14 7 -16 13 -6 24 6 7 9 21 5 29 -3 9 1 27
10 40 9 14 14 32 10 40 -3 9 0 15 10 15 13 0 15 -7 10 -33 -8 -42 0 -50 30
-30 15 9 35 13 53 10 31 -6 51 7 51 35 0 19 28 38 59 38 18 0 18 -2 5 -28 -7
-16 -25 -34 -40 -40 -28 -13 -28 -35 1 -40 10 -2 28 -16 40 -30 15 -17 27 -23
40 -18 18 7 18 7 -4 114 -4 23 -5 60 -1 83 6 33 5 41 -9 45 -37 12 -46 23 -51
60 -4 31 -10 40 -27 42 -31 5 -29 20 4 28 31 8 57 -5 62 -32 5 -27 21 -44 42
-44 24 0 42 35 36 68 -3 14 0 37 5 51 l10 26 9 -24 9 -23 40 36 c52 46 108 49
182 9z m-1142 -111 c0 -44 -19 -78 -75 -132 -58 -56 -85 -107 -92 -176 -5 -45
-2 -59 21 -98 33 -57 60 -76 108 -76 33 0 46 7 92 55 44 46 59 55 88 55 22 0
41 -7 53 -20 11 -12 13 -20 6 -20 -6 0 -31 -18 -56 -41 -73 -67 -99 -168 -80
-307 9 -62 -8 -159 -37 -217 -35 -68 -134 -157 -208 -185 -58 -22 -79 -25
-200 -25 -116 1 -143 4 -192 23 -128 51 -187 116 -208 227 -16 82 -8 139 30
240 26 65 29 83 20 108 -21 60 -13 84 76 249 8 15 16 50 16 78 1 27 5 50 9 50
25 0 59 -73 59 -126 0 -61 82 -81 126 -30 22 25 24 36 24 135 0 177 16 196
175 207 112 8 169 31 200 81 l20 31 12 -26 c7 -15 12 -42 13 -60z m-1140 37
c4 -17 14 -25 33 -27 35 -4 25 -22 -13 -22 -19 0 -30 -6 -33 -17 -4 -14 -5
-13 -6 4 0 12 4 25 9 28 20 12 -2 26 -31 20 l-29 -7 23 26 c26 30 39 29 47 -5z
m-408 -66 c25 -12 54 -33 64 -47 16 -25 16 -29 -1 -66 -24 -53 -51 -61 -231
-67 -126 -5 -155 -3 -182 11 -65 33 -63 84 4 106 54 18 267 19 288 1 25 -21 5
-32 -35 -19 -47 14 -240 2 -266 -17 -17 -13 -17 -15 -2 -30 26 -26 86 -35 194
-29 126 7 188 20 211 45 17 19 17 21 -3 47 -35 48 -97 61 -288 61 -93 1 -199
-4 -235 -10 -146 -23 -223 -78 -186 -133 21 -33 90 -71 198 -108 91 -32 96
-32 275 -33 101 0 183 -3 183 -6 0 -20 -288 -26 -386 -8 -79 15 -207 65 -244
96 -45 37 -36 6 10 -38 70 -67 198 -94 455 -98 77 -1 141 -4 143 -6 2 -2 -3
-13 -11 -25 -8 -12 -18 -17 -21 -12 -3 5 -76 13 -163 16 -87 4 -189 14 -228
21 -167 32 -245 101 -245 219 0 38 5 48 35 75 69 60 182 80 430 77 169 -2 195
-4 237 -23z m316 -50 c3 -31 6 -33 42 -33 21 0 42 -4 45 -10 3 -5 15 -10 27
-10 17 0 20 4 15 30 -6 26 -4 30 15 30 17 0 19 -3 10 -12 -6 -6 -8 -17 -3 -27
14 -27 5 -96 -13 -99 -9 -2 -16 1 -16 7 0 6 -9 11 -21 11 -11 0 -18 4 -15 9
11 16 -22 33 -52 26 -40 -8 -108 -68 -132 -115 -11 -21 -27 -46 -37 -55 -16
-17 -16 -19 5 -36 13 -10 27 -31 33 -48 7 -20 18 -31 30 -31 25 0 24 -17 -2
-25 -21 -7 -56 22 -80 66 -6 11 -24 25 -39 31 l-29 10 23 62 c38 100 53 125
74 120 10 -3 26 4 36 15 11 12 29 21 41 21 13 0 25 6 28 14 6 16 -11 36 -30
36 -7 0 -13 11 -13 26 0 22 4 25 28 22 22 -2 28 -8 30 -35z m1932 7 c0 -11 5
-20 10 -20 6 0 10 -4 10 -10 0 -5 -13 -7 -31 -3 l-30 6 5 -39 c5 -31 4 -34 -3
-16 -7 14 -19 22 -35 22 -14 0 -28 5 -31 10 -4 6 6 10 23 10 24 0 32 6 41 30
11 34 41 41 41 10z m-1864 -145 c-11 -8 -27 -15 -35 -15 -13 1 -12 4 3 15 11
8 27 15 35 15 13 -1 12 -4 -3 -15z m25 -58 c-14 -15 -21 -17 -21 -8 0 21 33
56 38 41 3 -7 -5 -22 -17 -33z m1759 -138 c0 -18 -1 -18 -20 -2 -11 10 -20 26
-20 37 0 18 1 19 20 1 11 -10 20 -26 20 -36z m-99 8 c-10 -9 -11 -8 -5 6 3 10
9 15 12 12 3 -3 0 -11 -7 -18z m-1913 -47 c15 -1 14 -3 -2 -15 -14 -11 -23
-12 -33 -4 -18 16 -16 32 3 25 9 -3 23 -6 32 -6z m-10 -83 c31 -2 55 -21 65
-50 2 -8 13 -7 34 2 26 10 38 10 67 0 20 -7 36 -18 36 -24 0 -17 -55 -45 -90
-45 -17 0 -44 -7 -61 -15 -16 -9 -34 -13 -39 -10 -5 3 -11 1 -14 -4 -7 -10 64
-61 86 -61 9 0 18 -9 21 -20 3 -11 12 -20 21 -20 30 0 16 -18 -19 -24 -19 -4
-35 -11 -35 -16 0 -17 -30 -11 -37 8 -16 44 -45 73 -71 70 -53 -6 -55 -76 -2
-103 43 -22 79 -61 97 -106 14 -35 19 -39 52 -39 39 0 66 -15 121 -66 80 -74
172 -94 186 -39 3 13 3 28 0 34 -8 12 20 41 40 41 19 0 18 -6 -6 -30 -11 -11
-20 -29 -20 -39 0 -11 -4 -23 -10 -26 -18 -11 -11 -27 10 -22 11 3 20 1 20 -4
0 -5 -7 -9 -16 -9 -9 0 -14 -6 -11 -12 2 -8 21 -12 49 -11 42 1 46 -1 46 -23
0 -24 -12 -32 -22 -15 -3 4 -46 12 -96 15 -87 7 -91 9 -132 47 -23 21 -50 41
-60 44 -20 7 -66 -15 -92 -44 -24 -26 -51 -27 -69 -1 -14 20 -15 20 -38 2 -13
-11 -39 -27 -56 -36 -28 -14 -33 -22 -33 -52 0 -19 4 -44 10 -54 9 -16 7 -17
-15 -6 -17 7 -23 16 -18 26 3 8 6 26 7 39 1 24 -1 24 -67 23 l-69 -1 7 62 c9
76 9 77 46 77 91 0 107 133 24 198 -14 11 -25 26 -25 34 0 19 69 298 76 310 4
6 20 7 38 3 17 -3 46 -7 64 -8z m2251 -82 c16 5 20 3 15 -9 -7 -19 -35 -21
-52 -4 -17 17 -15 33 3 18 8 -6 23 -9 34 -5z m-2509 -23 c0 -12 -18 -24 -57
-40 -84 -32 -161 -47 -413 -81 -124 -17 -261 -38 -305 -46 -107 -21 -302 -73
-335 -90 -25 -13 -89 -77 -91 -93 -15 -81 -13 -92 18 -124 68 -72 184 -102
383 -102 150 0 209 12 252 51 16 14 18 14 24 -1 18 -46 -54 -100 -181 -136
l-60 -17 55 -6 c30 -4 120 -14 200 -22 250 -26 419 -76 394 -117 -3 -4 -27 3
-54 17 -68 34 -148 51 -325 69 -82 9 -201 22 -264 31 -63 8 -120 15 -125 15
-6 0 -18 5 -26 10 -25 17 7 30 75 30 63 0 143 17 209 45 53 22 42 26 -29 9
-182 -42 -465 8 -552 98 -24 25 -28 37 -28 88 0 45 5 65 23 89 28 39 21 39
-53 0 -84 -43 -124 -75 -143 -115 -15 -33 -15 -37 3 -70 10 -20 42 -54 69 -76
113 -91 266 -138 611 -189 116 -16 259 -41 319 -55 97 -22 295 -80 305 -90 2
-2 1 -10 -3 -19 -5 -14 -9 -14 -43 0 -40 17 -203 65 -203 60 0 -2 21 -15 48
-31 57 -33 148 -109 163 -135 5 -11 7 -29 4 -40 -6 -18 -9 -16 -34 18 -63 87
-180 166 -301 206 -42 14 -138 35 -215 47 -454 71 -575 112 -704 238 -66 65
-76 94 -50 151 28 63 128 127 313 198 96 37 295 83 362 83 22 0 60 6 85 14 24
8 121 24 214 36 213 26 343 53 409 84 28 13 52 25 54 25 1 1 2 -7 2 -17z m-20
-107 c0 -9 -12 -20 -27 -26 -62 -24 -245 -59 -343 -66 -102 -7 -104 -7 -50
-15 88 -12 238 3 373 37 21 6 27 4 27 -9 0 -44 -270 -68 -535 -47 -142 11
-408 -44 -549 -115 -38 -19 -71 -33 -73 -30 -8 8 60 49 136 81 143 60 312 96
596 125 206 22 315 40 382 65 50 18 63 18 63 0z m790 -355 c-20 -13 -33 -13
-25 0 3 6 14 10 23 10 15 0 15 -2 2 -10z m1131 -97 c12 -15 12 -16 -4 -10 -10
4 -23 7 -28 7 -6 0 -7 5 -4 10 9 15 21 12 36 -7z m-1581 -78 c0 -18 -51 -45
-82 -44 -18 0 -15 3 12 12 19 7 39 22 45 34 10 23 25 22 25 -2z m-255 -53
c-21 -5 -45 5 -45 17 0 5 13 4 31 -2 21 -8 26 -13 14 -15z m-22 -60 c-7 -51
-11 -62 -23 -62 -11 0 -14 68 -4 94 12 30 33 6 27 -32z m2247 -36 c0 -8 12
-24 26 -35 15 -12 22 -21 17 -21 -17 0 -63 41 -63 56 0 8 5 14 10 14 6 0 10
-6 10 -14z m-1095 -86 c205 -14 423 -37 590 -61 149 -21 488 -88 594 -117 l64
-17 -4 -75 c-9 -167 -4 -588 9 -685 48 -358 146 -596 405 -985 l70 -105 -12
-128 c-6 -71 -36 -276 -66 -455 -30 -180 -64 -388 -75 -462 -11 -74 -23 -136
-25 -138 -2 -2 -57 -16 -122 -32 -516 -123 -947 -374 -1311 -762 -40 -43 -76
-77 -80 -75 -4 1 -25 58 -48 127 -23 69 -57 157 -77 196 -106 211 -295 432
-434 509 -40 22 -71 45 -69 50 1 6 70 18 152 27 201 23 353 50 644 114 253 56
331 83 459 162 53 32 54 33 21 27 -19 -3 -71 -15 -115 -25 -804 -192 -1043
-227 -1493 -217 -322 7 -820 58 -1080 112 -314 64 -439 106 -596 197 -137 80
-200 166 -230 313 -17 82 -32 245 -22 245 4 0 32 -13 64 -29 199 -100 518
-186 877 -237 150 -21 611 -30 802 -15 693 54 1053 170 1568 503 148 96 321
251 377 337 48 76 31 79 -42 6 -43 -43 -73 -66 -79 -60 -5 6 -19 41 -31 78
-23 72 -70 137 -99 137 -25 0 -113 -44 -181 -90 -39 -27 -67 -55 -81 -81 -19
-38 -19 -43 -5 -87 9 -26 34 -78 55 -114 l39 -67 -51 -32 c-209 -129 -381
-217 -539 -275 -462 -170 -1229 -237 -1783 -154 -236 35 -516 103 -662 161
-213 84 -731 374 -903 505 -83 63 -263 252 -299 314 -90 157 -95 337 -14 508
38 81 96 139 176 178 86 41 151 49 262 35 116 -16 130 -21 493 -182 173 -76
359 -154 415 -173 182 -62 418 -72 600 -25 220 56 390 206 516 456 87 174 145
341 185 534 19 95 26 114 42 117 10 1 98 9 194 17 194 16 692 13 955 -5z
m1671 -66 c-5 -14 -46 -20 -46 -7 0 4 10 18 23 31 18 20 23 21 25 7 2 -9 1
-23 -2 -31z m-5996 -314 c0 -5 -22 -10 -49 -10 -190 0 -468 -74 -557 -148 -80
-67 -67 -198 25 -271 97 -77 167 -85 496 -56 171 15 421 19 462 7 16 -5 20
-11 14 -21 -7 -11 -38 -14 -143 -14 -102 1 -119 -1 -73 -6 72 -9 175 -53 175
-75 0 -21 -2 -20 -58 8 -86 43 -144 49 -517 50 -311 1 -357 3 -412 20 -176 53
-199 218 -48 348 77 67 302 152 450 171 68 9 235 7 235 -3z m4947 -1370 l24
-75 -33 -28 c-47 -40 -115 -87 -127 -87 -12 0 -74 103 -92 153 -13 36 -12 38
16 67 17 16 59 45 95 64 l65 35 14 -27 c8 -14 25 -60 38 -102z m-4379 27 l61
-62 -86 -104 -86 -104 -48 51 c-27 28 -49 60 -49 71 0 30 119 211 139 211 4 0
34 -28 69 -63z m525 -374 c45 -25 84 -48 87 -50 6 -5 -26 -63 -83 -151 -38
-59 -43 -63 -70 -58 -39 8 -141 78 -145 100 -4 19 105 206 120 206 5 0 46 -21
91 -47z m6746 -502 c0 -14 -1 -14 -6 -1 -3 8 -10 24 -15 35 -9 20 -9 20 6 1 9
-11 16 -27 15 -35z m266 -164 c11 -6 24 -10 28 -9 5 1 6 -2 3 -7 -4 -5 -2 -12
4 -16 29 -18 -16 -63 -79 -80 -45 -12 -51 -11 -65 4 -18 20 -21 47 -7 56 6 3
14 -2 19 -12 8 -14 16 -15 48 -8 53 14 54 32 3 45 -56 15 -121 -1 -112 -28 4
-13 2 -13 -10 3 -9 11 -17 28 -17 37 0 33 131 43 185 15z m50 13 c3 -6 -1 -7
-9 -4 -18 7 -21 14 -7 14 6 0 13 -4 16 -10z m19 -86 c3 -8 2 -12 -4 -9 -6 3
-10 10 -10 16 0 14 7 11 14 -7z m-90 -230 c3 -8 2 -12 -4 -9 -6 3 -10 10 -10
16 0 14 7 11 14 -7z m21 -34 c3 -5 1 -10 -4 -10 -6 0 -11 5 -11 10 0 6 2 10 4
10 3 0 8 -4 11 -10z m44 -89 c-1 -13 -2 -13 -6 2 -2 9 -9 17 -14 17 -5 0 -9 5
-9 11 0 8 5 8 15 -1 8 -7 14 -20 14 -29z m-4512 -53 c-73 -98 -127 -258 -134
-398 -4 -96 -8 -111 -43 -180 -20 -41 -48 -101 -60 -132 -13 -32 -27 -58 -31
-58 -33 0 -48 522 -20 708 l14 92 149 0 149 0 -24 -32z m4556 -30 c23 -56 16
-58 -10 -3 -11 25 -17 45 -13 45 4 0 14 -19 23 -42z m-5086 26 c-3 -3 -12 -4
-19 -1 -8 3 -5 6 6 6 11 1 17 -2 13 -5z m699 -115 c85 -57 162 -139 256 -274
108 -155 150 -246 213 -464 l33 -115 -22 -33 c-11 -18 -24 -33 -28 -33 -3 0
-16 30 -29 68 -39 119 -99 272 -133 340 -89 176 -228 347 -374 461 l-69 54 19
34 c23 38 20 39 134 -38z m2058 4 c-3 -27 -9 -51 -13 -55 -3 -3 -49 -18 -101
-32 -382 -103 -644 -229 -895 -431 -173 -139 -268 -241 -398 -428 l-68 -98
-37 7 c-77 14 -77 12 -31 89 118 197 373 446 643 626 132 88 349 198 497 253
76 28 365 111 402 115 5 1 5 -20 1 -46z m2376 6 c0 -6 -4 -7 -10 -4 -5 3 -10
11 -10 16 0 6 5 7 10 4 6 -3 10 -11 10 -16z m-5033 -21 c-3 -8 -6 -5 -6 6 -1
11 2 17 5 13 3 -3 4 -12 1 -19z m5054 -20 c11 -21 11 -22 -4 -9 -10 7 -17 17
-17 22 0 15 9 10 21 -13z m-4576 -108 c-10 -11 -20 -18 -23 -15 -3 3 3 14 13
25 10 11 20 18 23 15 3 -3 -3 -14 -13 -25z m-50 -66 c-8 -16 -15 -23 -15 -16
0 13 22 53 27 48 2 -2 -3 -16 -12 -32z m164 3 c-2 -1 -15 -11 -29 -22 l-25
-20 19 23 c11 12 24 22 29 22 6 0 8 -1 6 -3z m-114 -27 c3 -6 -1 -7 -9 -4 -18
7 -21 14 -7 14 6 0 13 -4 16 -10z m-645 -14 c0 -2 -8 -10 -17 -17 -16 -13 -17
-12 -4 4 13 16 21 21 21 13z m2350 -36 c-8 -5 -19 -10 -25 -10 -5 0 -3 5 5 10
8 5 20 10 25 10 6 0 3 -5 -5 -10z m331 -33 c-10 -9 -11 -8 -5 6 3 10 9 15 12
12 3 -3 0 -11 -7 -18z m-2094 -59 c-2 -13 -4 -3 -4 22 0 25 2 35 4 23 2 -13 2
-33 0 -45z m1653 42 c0 -5 -5 -10 -11 -10 -5 0 -7 5 -4 10 3 6 8 10 11 10 2 0
4 -4 4 -10z m-1402 -35 c-3 -3 -9 2 -12 12 -6 14 -5 15 5 6 7 -7 10 -15 7 -18z
m1782 21 c0 -3 -4 -8 -10 -11 -5 -3 -10 -1 -10 4 0 6 5 11 10 11 6 0 10 -2 10
-4z m-1953 -63 c-3 -10 -5 -2 -5 17 0 19 2 27 5 18 2 -10 2 -26 0 -35z m-777
-3 c18 -12 2 -12 -25 0 -13 6 -15 9 -5 9 8 0 22 -4 30 -9z m2597 -16 c-3 -3
-12 -4 -19 -1 -8 3 -5 6 6 6 11 1 17 -2 13 -5z m-1803 -70 c3 -8 2 -12 -4 -9
-6 3 -10 10 -10 16 0 14 7 11 14 -7z m2046 2 c0 -2 -8 -10 -17 -17 -16 -13
-17 -12 -4 4 13 16 21 21 21 13z m-780 -16 c0 -5 -5 -10 -11 -10 -5 0 -7 5 -4
10 3 6 8 10 11 10 2 0 4 -4 4 -10z m-2585 -20 c-3 -5 -12 -10 -18 -10 -7 0 -6
4 3 10 19 12 23 12 15 0z m1176 -137 c23 -29 40 -55 38 -57 -4 -3 -188 -36
-203 -36 -5 0 4 22 70 168 l26 57 14 -39 c8 -22 33 -63 55 -93z m104 117 c3
-6 -1 -7 -9 -4 -18 7 -21 14 -7 14 6 0 13 -4 16 -10z m180 0 c3 -5 1 -10 -4
-10 -6 0 -11 5 -11 10 0 6 2 10 4 10 3 0 8 -4 11 -10z m1855 6 c0 -2 -7 -7
-16 -10 -8 -3 -12 -2 -9 4 6 10 25 14 25 6z m80 -24 c0 -5 -15 -19 -32 -32
l-33 -23 29 31 c31 34 36 37 36 24z m-920 -26 c0 -3 -4 -8 -10 -11 -5 -3 -10
-1 -10 4 0 6 5 11 10 11 6 0 10 -2 10 -4z m-2355 -15 c3 -5 0 -13 -6 -17 -7
-4 -9 -3 -5 4 3 5 0 13 -6 15 -9 4 -10 6 -1 6 6 1 14 -3 18 -8z m1395 -12 c0
-6 -4 -7 -10 -4 -5 3 -10 11 -10 16 0 6 5 7 10 4 6 -3 10 -11 10 -16z m-90 -9
c0 -5 -2 -10 -4 -10 -3 0 -8 5 -11 10 -3 6 -1 10 4 10 6 0 11 -4 11 -10z m940
-60 c0 -5 -5 -10 -11 -10 -5 0 -7 5 -4 10 3 6 8 10 11 10 2 0 4 -4 4 -10z
m-960 -16 c0 -2 -7 -4 -15 -4 -8 0 -15 4 -15 10 0 5 7 7 15 4 8 -4 15 -8 15
-10z m75 6 c3 -5 2 -10 -4 -10 -5 0 -13 5 -16 10 -3 6 -2 10 4 10 5 0 13 -4
16 -10z m1715 -50 c0 -5 -5 -10 -11 -10 -5 0 -7 5 -4 10 3 6 8 10 11 10 2 0 4
-4 4 -10z m211 -190 c5 -69 18 -168 29 -220 10 -52 17 -96 16 -97 0 -1 -48
-21 -106 -46 -267 -114 -420 -159 -700 -206 -248 -43 -352 -53 -561 -54 l-184
-2 -7 50 c-32 218 -58 418 -55 421 2 2 35 -3 73 -11 89 -19 354 -19 494 -1
229 31 534 132 826 275 l159 78 2 -31 c2 -17 8 -87 14 -156z m-2621 146 c0 -2
-7 -7 -16 -10 -8 -3 -12 -2 -9 4 6 10 25 14 25 6z m-12 -40 c-7 -8 -15 -12
-17 -11 -5 6 10 25 20 25 5 0 4 -6 -3 -14z m1462 4 c0 -5 -5 -10 -11 -10 -5 0
-7 5 -4 10 3 6 8 10 11 10 2 0 4 -4 4 -10z m730 -20 c-35 -24 -54 -31 -30 -11
14 11 30 21 35 21 6 0 3 -5 -5 -10z m-2255 -40 c0 -7 -6 -14 -13 -16 -7 -1 -8
0 -2 3 16 8 11 26 -6 19 -9 -3 -12 -2 -9 5 9 13 30 6 30 -11z m2015 -50 c0 -5
-4 -10 -10 -10 -5 0 -10 5 -10 10 0 6 5 10 10 10 6 0 10 -4 10 -10z m-70 -14
c0 -3 -4 -8 -10 -11 -5 -3 -10 -1 -10 4 0 6 5 11 10 11 6 0 10 -2 10 -4z
m-2135 -16 c13 -6 15 -9 5 -9 -8 0 -22 4 -30 9 -18 12 -2 12 25 0z m2065 -4
c0 -11 -19 -15 -25 -6 -3 5 1 10 9 10 9 0 16 -2 16 -4z m-1979 -39 c-10 -9
-11 -8 -5 6 3 10 9 15 12 12 3 -3 0 -11 -7 -18z m1916 17 c-3 -3 -12 -4 -19
-1 -8 3 -5 6 6 6 11 1 17 -2 13 -5z m-316 -42 c-13 -2 -27 0 -32 5 -6 6 3 7
23 4 28 -4 29 -6 9 -9z m-1732 -106 l-32 -31 26 33 c15 19 27 39 28 45 0 7 3
7 6 -2 3 -7 -9 -27 -28 -45z m-107 -8 c21 -6 46 -20 55 -30 17 -19 17 -21 -16
-50 -27 -24 -39 -29 -64 -24 -16 3 -40 6 -54 6 -31 0 -42 29 -18 46 25 19 85
18 85 0 0 -8 6 -16 13 -19 15 -5 37 3 37 14 0 4 -7 5 -17 2 -10 -4 -14 -2 -10
4 10 16 -85 36 -138 30 -48 -5 -125 -57 -125 -84 0 -25 54 -70 108 -89 52 -19
61 -27 42 -39 -13 -8 -92 14 -112 32 -9 8 -22 12 -30 7 -7 -4 -10 -4 -6 1 4 4
-2 19 -12 33 -25 31 -26 76 -1 101 11 11 18 27 18 36 -1 10 5 20 13 22 13 4
13 3 0 -6 -32 -22 -1 -19 45 5 53 27 101 27 187 2z m-440 -15 c-3 -16 -7 -22
-10 -15 -4 13 4 42 11 42 2 0 2 -12 -1 -27z m269 -60 c13 -16 12 -17 -3 -4
-17 13 -22 21 -14 21 2 0 10 -8 17 -17z m-156 -33 c3 -5 1 -10 -4 -10 -6 0
-11 5 -11 10 0 6 2 10 4 10 3 0 8 -4 11 -10z m122 -22 c2 -17 0 -19 -7 -8 -5
8 -6 18 -4 22 8 12 10 10 11 -14z m181 -2 c-7 -8 -15 -12 -17 -11 -5 6 10 25
20 25 5 0 4 -6 -3 -14z m-321 -28 c-3 -8 -6 -5 -6 6 -1 11 2 17 5 13 3 -3 4
-12 1 -19z m-348 -47 c9 -6 10 -11 2 -15 -6 -4 -11 -2 -11 4 0 7 -7 9 -16 6
-8 -3 -12 -2 -9 4 8 12 16 12 34 1z m536 -68 l-28 -28 23 33 c12 18 24 31 27
28 3 -2 -7 -17 -22 -33z m-225 -187 c0 -3 -4 -8 -10 -11 -5 -3 -10 -1 -10 4 0
6 5 11 10 11 6 0 10 -2 10 -4z m-143 -12 c-3 -3 -12 -4 -19 -1 -8 3 -5 6 6 6
11 1 17 -2 13 -5z m103 -34 c0 -25 -64 -54 -102 -46 -30 6 -88 -16 -88 -34 0
-17 45 -22 101 -12 30 6 56 8 59 5 3 -2 -9 -17 -26 -32 -36 -32 -99 -39 -143
-17 -45 24 -52 38 -36 70 8 15 12 33 8 39 -3 6 -1 7 6 3 6 -4 18 -2 26 4 8 7
50 23 92 35 81 24 103 20 103 -15z m-225 20 c-3 -5 -12 -10 -18 -10 -7 0 -6 4
3 10 19 12 23 12 15 0z m-307 -25 c-3 -3 -9 2 -12 12 -6 14 -5 15 5 6 7 -7 10
-15 7 -18z m542 -30 c-13 -14 -26 -23 -28 -20 -4 4 38 44 47 45 3 0 -6 -11
-19 -25z m-1785 -13 c-3 -3 -11 0 -18 7 -9 10 -8 11 6 5 10 -3 15 -9 12 -12z
m1512 -34 c-3 -8 -6 -5 -6 6 -1 11 2 17 5 13 3 -3 4 -12 1 -19z m-90 -80 c-3
-7 -5 -2 -5 12 0 14 2 19 5 13 2 -7 2 -19 0 -25z m243 -1 c0 -2 -15 -16 -32
-33 l-33 -29 29 33 c28 30 36 37 36 29z"/>
<path d="M5964 6723 c-8 -32 6 -57 35 -61 28 -4 51 14 51 42 0 30 -18 46 -52
46 -22 0 -29 -6 -34 -27z"/>
<path d="M5848 6708 c-40 -30 -41 -101 -2 -143 30 -33 67 -32 93 1 27 35 27
73 -2 115 -25 37 -61 48 -89 27z"/>
<path d="M5730 6646 c-26 -69 -24 -162 6 -200 10 -14 31 -22 69 -26 77 -8 84
4 40 69 -19 29 -39 71 -45 94 -22 86 -51 112 -70 63z"/>
<path d="M5475 6414 c-39 -40 -94 -189 -76 -207 7 -7 14 -7 19 -1 4 5 25 31
46 57 21 27 49 53 62 57 28 11 30 22 9 40 -8 7 -15 25 -15 41 0 33 -19 38 -45
13z"/>
<path d="M5638 6333 c-143 -54 -229 -179 -229 -332 0 -77 10 -116 45 -176 127
-215 444 -203 563 22 96 180 35 391 -137 476 -61 29 -176 34 -242 10z m176
-60 c48 -13 71 -27 108 -65 55 -57 72 -101 73 -188 0 -52 -6 -77 -28 -123 -31
-61 -95 -124 -150 -144 -54 -20 -155 -16 -204 8 -82 40 -143 141 -143 239 0
123 99 251 216 279 56 13 61 13 128 -6z"/>
<path d="M5640 6153 c-8 -3 -30 -19 -48 -36 -120 -114 5 -301 154 -231 99 47
112 199 22 254 -31 19 -94 25 -128 13z m58 -85 c2 -19 -3 -31 -21 -43 -30 -19
-57 -10 -57 20 0 55 72 76 78 23z"/>
<path d="M6102 6270 c-23 -17 -42 -31 -42 -33 0 -1 8 -24 18 -52 26 -72 45
-70 71 6 38 112 26 132 -47 79z"/>
<path d="M4806 4735 c-38 -38 -40 -173 -4 -243 34 -66 91 -97 178 -96 93 1
156 37 213 124 20 29 22 71 5 88 -25 25 -61 13 -107 -37 -52 -56 -100 -72
-151 -51 -35 14 -47 52 -49 144 0 32 -6 64 -12 72 -15 19 -54 18 -73 -1z"/>
<path d="M5516 4528 c-31 -44 -13 -137 37 -195 92 -104 273 -111 395 -15 43
35 102 136 102 176 0 16 -9 31 -25 42 -37 24 -68 6 -99 -55 -36 -70 -84 -104
-155 -109 -90 -6 -151 34 -172 113 -6 22 -16 46 -21 53 -16 19 -45 14 -62 -10z"/>
<path d="M2186 4189 c-33 -39 -35 -91 -4 -113 27 -19 50 -8 72 38 22 46 20 83
-3 96 -29 15 -37 13 -65 -21z"/>
<path d="M2471 4012 c-39 -55 -36 -112 6 -112 21 0 61 47 68 81 13 58 -39 80
-74 31z"/>
<path d="M606 4638 c-33 -58 -40 -91 -27 -131 16 -46 46 -72 108 -92 70 -23
84 -15 34 19 -60 42 -96 119 -88 191 3 30 4 55 2 55 -2 0 -15 -19 -29 -42z"/>
<path d="M0 8869 l0 -39 58 1 c63 0 155 16 112 18 -14 1 -58 15 -97 30 l-73
29 0 -39z"/>
<path d="M640 8883 c-81 -8 -192 -25 -290 -44 -58 -11 -160 -23 -227 -26
l-123 -6 0 -124 0 -124 47 6 c89 13 197 56 348 137 211 115 260 139 340 164
l70 22 -65 0 c-36 -1 -81 -3 -100 -5z"/>
<path d="M1076 8841 c51 -31 74 -68 74 -120 0 -51 -19 -87 -54 -101 -16 -7
-10 -9 28 -9 54 -1 111 27 121 60 4 11 4 33 0 49 -10 44 7 38 73 -27 49 -48
61 -68 75 -119 29 -105 19 -148 -43 -174 -17 -7 -46 -28 -64 -46 -29 -29 -41
-34 -83 -34 -28 0 -57 6 -69 15 -17 13 -14 14 37 9 49 -6 59 -4 78 15 16 16
20 28 15 44 -9 29 -17 33 -81 41 -72 8 -124 -7 -169 -49 -34 -32 -36 -38 -31
-77 7 -54 39 -82 107 -97 215 -46 510 89 510 234 0 88 -149 244 -312 326 -47
24 -213 79 -237 79 -3 0 8 -9 25 -19z"/>
<path d="M515 8734 c-248 -138 -387 -193 -482 -194 -23 0 -33 -5 -33 -15 0
-12 16 -15 83 -15 153 0 285 52 397 156 36 33 86 75 113 94 41 29 53 40 45 40
-2 0 -57 -30 -123 -66z"/>
<path d="M1020 8630 c8 -5 22 -9 30 -9 10 0 8 3 -5 9 -27 12 -43 12 -25 0z"/>
<path d="M0 8370 l0 -115 20 25 c21 27 40 82 40 115 -1 11 -14 36 -30 55 l-30
34 0 -114z"/>
<path d="M1204 7755 c17 -75 110 -160 209 -191 29 -9 98 -18 153 -21 90 -5
125 -1 320 37 121 23 236 45 257 48 l39 7 -21 27 c-12 14 -21 33 -21 42 0 9
-8 29 -17 44 -9 15 -18 28 -18 30 -1 1 -80 -36 -176 -82 -197 -96 -263 -116
-377 -116 -149 0 -254 52 -325 160 -26 40 -29 42 -23 15z"/>
<path d="M2055 7555 c-30 -31 -31 -37 -7 -57 48 -43 146 -67 218 -53 37 6 37
7 13 19 -16 8 -28 9 -36 3 -18 -13 -16 -1 3 17 9 9 11 16 4 16 -6 0 -9 4 -6 9
3 5 -1 11 -9 15 -8 3 -15 12 -15 21 0 9 -10 15 -27 16 l-28 1 25 8 c18 6 7 8
-42 9 -59 1 -70 -2 -93 -24z m102 9 c-3 -3 -12 -4 -19 -1 -8 3 -5 6 6 6 11 1
17 -2 13 -5z m40 -30 c-3 -3 -12 -4 -19 -1 -8 3 -5 6 6 6 11 1 17 -2 13 -5z
m33 -29 c0 -2 -10 -9 -22 -15 -22 -11 -22 -10 -4 4 21 17 26 19 26 11z"/>
<path d="M2053 7452 c33 -41 191 -76 262 -58 49 12 17 20 -73 17 -79 -2 -92 1
-144 27 -32 16 -52 22 -45 14z"/>
<path d="M3431 7120 c-1 -30 44 -130 58 -130 5 0 13 5 16 10 3 6 2 10 -4 10
-6 0 -13 11 -17 24 -3 14 -12 27 -20 30 -22 8 -17 46 9 57 20 9 20 9 -5 4 -16
-3 -28 0 -31 8 -3 6 -6 1 -6 -13z"/>
<path d="M3380 7093 c0 -18 5 -33 10 -33 13 0 13 30 0 50 -7 11 -10 7 -10 -17z"/>
<path d="M3220 7084 c0 -10 5 -26 10 -34 8 -11 9 -7 4 15 -8 37 -14 45 -14 19z"/>
<path d="M3308 7065 c5 -36 41 -86 82 -115 39 -28 149 -72 164 -66 7 3 6 5 -2
5 -33 2 -101 63 -125 111 -24 47 -26 49 -42 34 -12 -13 -16 -14 -15 -3 7 44
-1 69 -20 69 -11 0 -20 -7 -20 -15 0 -18 -17 -20 -23 -2 -2 6 -2 -1 1 -18z
m48 -5 c-1 -16 -5 -30 -9 -30 -5 0 -5 -5 -1 -12 4 -6 3 -8 -3 -5 -10 7 -5 77
7 77 4 0 7 -13 6 -30z"/>
<path d="M9555 5291 c-17 -7 -15 -9 13 -13 22 -3 32 -1 32 9 0 14 -15 16 -45
4z"/>
<path d="M1310 5255 c-15 -39 -14 -40 33 -53 48 -13 107 -64 107 -92 0 -32
-11 -50 -41 -65 -37 -20 -162 -19 -225 0 -34 11 -130 19 -309 27 -387 16 -549
-7 -770 -111 -93 -44 -105 -52 -105 -75 0 -14 2 -26 4 -26 2 0 29 11 60 25 66
29 218 68 336 87 135 21 535 18 635 -5 107 -25 296 -33 363 -17 109 26 182
117 152 190 -23 56 -115 120 -193 134 -34 6 -38 5 -47 -19z"/>
<path d="M1240 5159 c-19 -16 -57 -38 -84 -48 l-49 -18 69 -18 c121 -31 244
-16 244 30 0 13 -36 48 -65 62 -49 24 -79 22 -115 -8z"/>
<path d="M122 5100 c-126 -14 -122 -11 -122 -85 l0 -64 84 39 c100 47 243 88
346 98 l75 7 -90 6 c-115 9 -202 8 -293 -1z"/>
<path d="M9230 4873 c-192 -31 -297 -83 -331 -164 -40 -97 157 -273 353 -315
124 -26 271 -10 311 34 13 14 15 25 7 51 -22 77 -104 122 -233 129 -59 3 -92
1 -102 -8 -15 -13 -35 -6 -35 12 0 25 99 79 180 98 30 8 92 14 138 14 l82 0 0
71 0 72 -122 6 c-126 7 -205 7 -248 0z"/>
<path d="M9380 4672 l-65 -16 55 -8 c70 -10 171 -60 204 -99 l26 -31 0 80 c0
64 -3 81 -16 86 -28 11 -138 5 -204 -12z"/>
<path d="M8671 4635 c-1 -54 23 -164 48 -220 77 -173 220 -280 516 -385 66
-24 173 -62 237 -86 65 -24 120 -44 123 -44 3 0 5 29 5 64 l0 65 -47 6 c-240
29 -341 54 -470 117 -104 52 -288 198 -249 198 3 0 37 -18 78 -39 185 -100
470 -154 651 -125 35 6 37 9 37 43 l0 36 -81 -9 c-201 -24 -498 48 -666 162
-83 56 -131 120 -168 221 l-14 36 0 -40z"/>
<path d="M8986 4239 c10 -17 158 -86 239 -112 96 -30 248 -57 322 -57 l53 0 0
43 0 42 -168 0 c-178 1 -257 15 -394 70 -32 13 -56 19 -52 14z"/>
<path d="M0 3806 c0 -22 4 -26 28 -26 64 0 143 -86 121 -132 -17 -38 -73 -71
-114 -66 -35 4 -35 4 -35 -36 l0 -39 96 6 c116 8 162 27 187 78 25 51 25 114
0 147 -34 46 -119 82 -206 89 l-77 6 0 -27z"/>
<path d="M9099 3760 c-26 -4 -69 -19 -95 -32 -40 -20 -50 -30 -52 -54 -4 -37
18 -64 78 -94 128 -65 268 -93 445 -88 l120 3 3 26 3 26 -53 -14 c-78 -21
-268 -13 -329 14 -93 41 -115 96 -53 133 31 20 44 22 101 16 36 -4 94 -16 129
-28 55 -18 64 -24 64 -45 0 -13 -6 -26 -12 -28 -15 -6 -178 -12 -178 -7 0 2 4
11 10 21 8 16 19 18 77 14 l68 -4 -35 17 c-51 23 -201 31 -218 11 -11 -13 -9
-19 13 -41 33 -33 80 -46 195 -52 104 -6 186 9 203 37 8 12 4 28 -16 61 -20
35 -40 52 -92 78 -64 32 -70 34 -198 36 -73 2 -153 -1 -178 -6z"/>
<path d="M2 3687 l3 -62 35 -3 c27 -2 41 3 59 22 l23 24 -22 30 c-14 19 -37
34 -62 40 l-39 10 3 -61z"/>
<path d="M9460 3451 l-35 -6 33 -14 c77 -32 113 -161 62 -217 l-25 -27 25 6
c14 4 37 7 53 7 l27 0 0 130 0 130 -52 -1 c-29 -1 -69 -4 -88 -8z"/>
<path d="M230 3386 c-19 -37 -16 -103 7 -134 24 -32 92 -61 146 -61 25 -1 37
-5 37 -16 0 -24 -78 -40 -195 -40 -98 1 -116 4 -167 27 l-58 27 0 -88 0 -89
46 -11 c106 -27 261 -34 458 -22 336 20 455 12 656 -46 95 -27 232 -91 270
-125 68 -61 87 -127 65 -220 -16 -69 -32 -99 -95 -178 -71 -89 -96 -139 -91
-187 2 -26 73 -45 147 -40 55 3 89 12 160 45 129 59 162 66 319 66 160 1 189
-8 261 -80 39 -39 45 -41 90 -37 74 6 77 11 50 68 -34 73 -110 137 -209 176
-72 28 -94 32 -182 33 -55 0 -136 -3 -181 -8 -146 -16 -189 18 -144 114 30 63
23 118 -26 220 -29 58 -56 94 -123 160 -142 140 -249 181 -506 195 -152 8
-468 43 -520 56 -58 16 -107 43 -142 79 -31 32 -56 100 -46 126 9 24 -13 15
-27 -10z"/>
<path d="M9545 3170 c-101 -17 -183 -88 -242 -207 -31 -63 -35 -79 -31 -130 9
-122 116 -229 276 -276 l52 -16 0 294 c0 271 -1 294 -17 298 -17 4 -17 5 0 6
10 1 17 9 17 21 0 11 -3 19 -7 19 -5 -1 -26 -5 -48 -9z"/>
<path d="M1428 3015 c129 -97 216 -224 229 -334 l6 -53 14 32 c23 55 17 120
-16 171 -29 47 -136 146 -152 142 -5 -2 -9 1 -9 6 0 9 -111 81 -125 81 -4 0
20 -20 53 -45z"/>
<path d="M0 2929 l0 -49 63 0 c34 0 145 9 247 20 281 31 485 36 595 16 213
-40 426 -108 507 -161 51 -34 37 -8 -17 32 -59 44 -130 76 -252 112 -163 48
-261 56 -562 45 -282 -10 -457 -3 -533 20 l-48 14 0 -49z"/>
<path d="M475 2879 c-49 -5 -150 -15 -224 -24 -74 -8 -160 -15 -192 -15 l-59
0 0 -604 0 -604 42 -16 c93 -34 138 -46 251 -65 194 -34 407 -43 962 -39 519
3 520 3 717 -24 215 -30 441 -77 527 -108 79 -29 148 -79 168 -120 24 -50 23
-122 -2 -150 l-20 -23 50 7 c95 14 140 27 189 54 69 38 72 46 51 136 -17 70
-23 81 -64 117 -25 21 -52 37 -59 34 -7 -3 -10 -1 -7 5 9 15 -89 39 -209 50
-232 23 -374 42 -455 61 -134 32 -336 116 -405 168 -63 48 -130 135 -142 184
l-6 29 -32 -30 c-56 -54 -163 -67 -263 -32 -92 32 -96 60 -13 102 123 62 344
37 245 -28 -49 -32 -155 -31 -155 2 0 12 7 14 29 9 36 -8 101 3 101 17 0 17
-148 0 -197 -22 -24 -10 -43 -23 -43 -29 0 -11 96 -41 134 -41 63 0 126 22
147 51 32 45 41 87 21 93 -35 10 -151 9 -247 -4 -78 -10 -109 -10 -143 -1 -86
24 -151 116 -117 167 7 12 44 36 80 55 68 34 91 51 55 42 -28 -7 -126 13 -235
48 -68 22 -108 29 -170 29 -44 0 -87 -5 -95 -10 -13 -8 -13 -10 1 -10 9 0 31
-13 49 -30 41 -38 38 -69 -10 -93 -61 -32 -184 -6 -178 37 2 17 12 22 53 27
57 7 75 3 75 -16 0 -9 -15 -15 -37 -18 -32 -3 -30 -4 13 -5 60 -2 88 18 63 43
-21 21 -151 30 -222 15 -51 -10 -58 -14 -55 -33 2 -15 21 -32 58 -52 53 -29
60 -30 182 -30 119 0 128 1 151 24 31 29 47 21 47 -24 0 -42 -20 -57 -110 -80
-77 -20 -177 -24 -360 -13 -175 10 -251 33 -310 93 -53 54 -68 117 -39 164 33
54 123 110 221 138 56 16 102 18 440 15 392 -4 473 2 594 39 33 10 73 30 89
45 24 22 27 31 22 67 -4 28 -14 49 -31 63 -39 34 -217 99 -366 135 -119 28
-155 32 -300 35 -91 1 -205 -2 -255 -7z"/>
<path d="M1446 2603 c-9 -30 -56 -68 -106 -87 -113 -44 -176 -49 -600 -50
-394 -1 -407 -2 -468 -24 -97 -35 -175 -91 -183 -132 -11 -55 59 -130 143
-154 70 -20 354 -39 443 -30 l70 8 -86 8 c-187 16 -300 97 -234 167 17 17 141
42 176 35 18 -3 38 3 62 19 70 48 167 44 347 -13 121 -39 188 -47 215 -27 19
15 19 17 3 45 -18 30 -18 30 6 28 13 0 22 -4 20 -7 -2 -4 2 -19 10 -34 24 -47
-2 -85 -86 -126 -115 -56 -126 -77 -66 -138 40 -41 60 -45 176 -36 53 4 143 7
200 6 91 -1 102 1 102 17 0 22 46 91 79 117 14 11 32 26 40 32 21 17 -45 -9
-90 -36 -43 -25 -133 -51 -175 -51 -52 0 -132 20 -154 38 -46 38 -22 122 65
232 72 91 82 109 94 160 10 45 8 67 -3 33z"/>
<path d="M2200 2432 c76 -36 153 -116 176 -180 17 -47 20 -50 36 -36 25 24 32
68 14 102 -18 36 -73 68 -183 111 -100 38 -117 39 -43 3z"/>
<path d="M2470 2259 c0 -54 -70 -102 -166 -114 l-49 -7 3 -38 4 -37 46 5 c73
8 127 38 162 90 33 51 36 66 15 102 l-14 25 -1 -26z"/>
<path d="M1844 2242 c-76 -27 -157 -79 -184 -118 -33 -49 -49 -119 -38 -169
14 -63 68 -143 131 -196 64 -54 85 -64 45 -21 -74 79 -91 231 -34 299 13 16
29 45 35 65 7 20 30 53 52 72 35 32 45 36 93 36 66 0 103 -13 134 -46 l23 -24
-27 -25 c-41 -38 -112 -32 -134 11 -18 32 -7 41 19 15 23 -23 75 -28 87 -9 13
20 -28 38 -86 38 -50 0 -59 -3 -87 -32 -40 -42 -49 -77 -29 -116 35 -67 113
-95 211 -77 101 18 151 61 161 137 4 34 -44 100 -103 141 -36 26 -52 30 -130
34 -68 3 -100 0 -139 -15z"/>
<path d="M7843 2204 c-9 -25 5 -781 17 -914 44 -478 142 -823 336 -1187 53
-99 56 -103 88 -103 l33 0 -96 193 c-113 226 -176 396 -222 600 -33 145 -33
149 -14 159 10 6 38 29 62 51 l43 39 9 -25 c140 -367 319 -640 586 -895 l129
-122 50 0 c27 0 46 4 41 8 -216 184 -287 256 -412 414 -277 351 -455 850 -569
1598 -14 96 -31 181 -36 188 -14 17 -37 15 -45 -4z m127 -741 c20 -82 50 -192
66 -247 l28 -99 -54 -50 -55 -50 -7 34 c-24 120 -48 545 -31 562 11 12 15 1
53 -150z"/>
<path d="M2130 1580 c91 -24 94 -24 345 -50 238 -24 285 -33 345 -65 l45 -25
-43 39 c-74 67 -128 78 -522 101 -102 6 -198 13 -215 15 -16 2 4 -4 45 -15z"/>
<path d="M0 1517 l0 -76 58 -8 c101 -14 477 -6 737 16 310 27 333 31 130 25
-181 -6 -430 7 -589 31 -91 14 -260 56 -318 80 -16 6 -18 0 -18 -68z"/>
<path d="M2862 1477 c47 -46 81 -87 73 -87 -3 0 0 -10 6 -22 6 -12 19 -49 29
-82 l17 -61 11 37 c11 42 3 88 -28 148 -24 46 -55 73 -108 93 l-42 17 42 -43z"/>
<path d="M1370 1449 c-85 -4 -236 -15 -335 -23 -99 -9 -205 -16 -235 -17 -47
0 -118 -16 -83 -18 6 -1 26 -13 43 -27 31 -26 32 -27 153 -21 67 3 223 21 346
41 364 58 464 58 657 0 106 -31 176 -82 204 -147 30 -69 18 -87 -126 -183 -77
-51 -192 -97 -315 -124 -95 -21 -171 -50 -182 -68 -9 -13 22 -38 63 -50 46
-14 189 -24 227 -16 29 6 30 8 26 48 -4 35 -1 47 21 73 42 50 118 69 382 98
274 29 379 62 411 129 42 89 -44 165 -244 217 -128 33 -408 77 -558 88 -153
12 -222 12 -455 0z"/>
<path d="M3009 1402 c77 -151 -9 -277 -224 -328 -33 -7 -83 -14 -111 -14 -30
0 -75 -10 -110 -24 -68 -27 -186 -49 -359 -67 -148 -15 -165 -21 -165 -54 0
-39 28 -85 58 -96 76 -30 118 -29 322 6 79 14 161 19 335 19 235 1 376 -5 370
-15 -2 -3 24 -11 58 -19 99 -21 197 -58 249 -93 16 -10 32 -15 38 -12 6 3 7
-1 4 -9 -3 -9 -1 -16 5 -16 18 0 43 -69 37 -96 -7 -26 5 -32 22 -11 40 48 10
130 -69 189 -53 39 -147 72 -299 105 -74 16 -124 18 -391 15 -273 -3 -308 -2
-323 13 -21 22 -20 47 4 73 22 24 46 29 175 37 165 11 260 33 348 78 104 55
143 100 141 167 -2 57 -35 113 -94 160 l-42 33 21 -41z m34 -549 c-7 -2 -19
-2 -25 0 -7 3 -2 5 12 5 14 0 19 -2 13 -5z m172 -13 c13 -6 15 -9 5 -9 -8 0
-22 4 -30 9 -18 12 -2 12 25 0z m293 -145 c-3 -3 -9 2 -12 12 -6 14 -5 15 5 6
7 -7 10 -15 7 -18z"/>
<path d="M0 1377 c0 -32 3 -35 38 -41 20 -3 68 -6 106 -6 59 0 74 4 94 22 l23
23 -103 11 c-57 7 -115 15 -130 19 -27 7 -28 5 -28 -28z"/>
<path d="M0 1181 l0 -118 36 1 c22 1 39 -4 41 -11 3 -8 -4 -13 -15 -13 -47 0
-33 -93 18 -123 22 -13 48 -18 100 -16 38 1 70 5 70 9 0 4 -9 15 -20 25 -51
46 -77 205 -50 304 6 23 10 44 8 46 -2 1 -45 5 -95 8 l-93 6 0 -118z"/>
<path d="M0 973 c0 -51 20 -90 58 -115 63 -40 78 -47 162 -68 66 -17 98 -20
164 -14 110 9 303 -18 413 -58 91 -33 240 -121 289 -172 42 -43 65 -136 43
-173 -23 -42 -90 -82 -167 -101 -90 -23 -141 -16 -183 24 -30 29 -40 78 -16
87 8 4 7 6 -4 6 -25 2 -59 -37 -59 -68 0 -21 10 -38 35 -60 45 -40 69 -45 187
-46 85 0 100 3 128 23 30 22 33 23 68 9 53 -21 82 -68 82 -133 0 -42 -5 -59
-26 -83 l-26 -31 56 0 56 0 0 48 c1 65 15 122 52 200 17 37 30 70 30 75 -1 4
2 7 7 7 16 0 53 102 53 145 0 71 -26 106 -121 166 -136 87 -346 136 -735 174
-142 14 -239 35 -251 56 -4 5 -36 6 -74 3 -38 -4 -85 -4 -105 0 -48 9 -101 56
-104 92 -3 38 -12 44 -12 7z m887 -219 c-3 -3 -12 -4 -19 -1 -8 3 -5 6 6 6 11
1 17 -2 13 -5z m-149 -458 c-7 -8 -15 -12 -17 -11 -5 6 10 25 20 25 5 0 4 -6
-3 -14z"/>
<path d="M1922 923 c-24 -8 -50 -26 -58 -38 -34 -52 12 -90 123 -100 55 -6 57
-5 28 8 -48 22 -58 41 -53 97 3 28 5 50 4 49 -1 0 -20 -7 -44 -16z"/>
<path d="M1999 916 c-13 -29 -5 -72 15 -79 11 -5 12 1 4 29 -5 19 -6 44 -3 54
9 28 -3 25 -16 -4z"/>
<path d="M0 736 l0 -128 88 6 c127 10 207 25 292 53 41 14 111 33 155 43 44
10 71 19 60 19 -11 1 -51 6 -88 10 -40 6 -95 6 -133 0 -53 -7 -77 -5 -142 12
-90 24 -178 62 -209 92 l-23 20 0 -127z"/>
<path d="M780 826 c0 -2 37 -9 82 -16 186 -27 362 -85 462 -151 32 -21 63 -36
69 -32 6 3 7 1 3 -5 -4 -7 2 -22 14 -34 28 -30 43 -93 37 -149 -4 -29 -28 -91
-66 -163 -60 -117 -81 -195 -67 -250 l6 -24 182 -1 183 -1 -44 22 c-62 32
-135 116 -151 172 -18 64 -7 190 25 295 39 131 32 173 -37 237 -47 44 -97 60
-255 84 -121 17 -443 29 -443 16z m780 -766 c0 -5 -2 -10 -4 -10 -3 0 -8 5
-11 10 -3 6 -1 10 4 10 6 0 11 -4 11 -10z"/>
<path d="M535 670 c-16 -4 -83 -24 -147 -43 -89 -28 -150 -39 -253 -48 l-135
-12 0 -35 0 -35 53 7 c53 7 229 47 487 111 88 22 174 37 218 38 66 2 70 3 45
14 -31 13 -220 16 -268 3z"/>
<path d="M3600 616 c0 -44 -31 -81 -88 -107 -101 -46 -196 -92 -229 -111 -26
-16 -31 -23 -21 -30 9 -6 6 -7 -9 -3 -31 8 -75 -22 -71 -49 5 -33 87 -34 185
-1 43 15 124 32 181 39 97 11 103 13 122 41 31 48 26 97 -21 181 -22 41 -42
74 -45 74 -2 0 -4 -15 -4 -34z m17 -38 c-3 -8 -6 -5 -6 6 -1 11 2 17 5 13 3
-3 4 -12 1 -19z m-267 -168 c-8 -5 -19 -10 -25 -10 -5 0 -3 5 5 10 8 5 20 10
25 10 6 0 3 -5 -5 -10z m247 -26 c-3 -3 -12 -4 -19 -1 -8 3 -5 6 6 6 11 1 17
-2 13 -5z"/>
<path d="M435 554 c-143 -35 -299 -70 -348 -76 l-87 -12 0 -39 c0 -29 4 -38
13 -34 8 3 40 8 73 12 83 10 124 21 245 66 204 76 377 112 512 107 47 -2 83 0
81 3 -2 4 -26 14 -53 23 -86 28 -155 20 -436 -50z"/>
<path d="M820 533 c-159 -6 -347 -47 -480 -106 -59 -26 -136 -47 -217 -58
-139 -19 -123 6 -123 -194 l0 -175 534 0 534 0 44 33 c38 29 43 38 46 78 3 39
-1 50 -27 78 l-29 31 -41 -20 c-84 -44 -250 -39 -324 11 -81 53 -97 136 -36
179 36 27 90 36 118 21 30 -16 26 -30 -9 -38 -39 -7 -45 -18 -26 -48 58 -88
322 -4 302 97 -14 73 -118 116 -266 111z"/>
<path d="M1562 485 c0 -16 2 -22 5 -12 2 9 2 23 0 30 -3 6 -5 -1 -5 -18z"/>
<path d="M5389 461 c-13 -15 -67 -75 -120 -132 -101 -110 -140 -153 -233 -261
l-58 -68 50 0 51 0 103 138 c167 221 256 352 240 352 -5 0 -20 -13 -33 -29z"/>
<path d="M1570 434 c0 -39 70 -165 117 -212 62 -62 195 -130 349 -179 l119
-38 417 -3 c394 -3 417 -2 422 15 4 10 36 38 73 63 73 51 92 76 50 68 -16 -3
-24 -1 -20 5 11 19 -120 -2 -284 -44 -150 -39 -167 -42 -341 -46 -128 -4 -187
-2 -195 6 -6 6 -35 11 -65 11 -272 0 -518 126 -612 314 -17 33 -30 50 -30 40z
m1277 -340 c-3 -3 -12 -4 -19 -1 -8 3 -5 6 6 6 11 1 17 -2 13 -5z"/>
<path d="M1526 363 c-16 -98 0 -182 40 -207 13 -9 22 -21 19 -27 -14 -22 61
-68 170 -104 64 -20 96 -25 179 -24 l101 1 -59 19 c-98 32 -240 104 -286 145
-51 46 -116 142 -132 196 -14 48 -24 48 -32 1z m42 -178 c-3 -3 -9 2 -12 12
-6 14 -5 15 5 6 7 -7 10 -15 7 -18z"/>
<path d="M2875 190 c-44 -10 -109 -28 -145 -40 -36 -11 -96 -27 -135 -35 l-70
-14 60 5 c33 3 128 23 212 45 83 21 165 39 182 39 16 0 33 5 36 10 9 15 -49
11 -140 -10z"/>
<path d="M3180 146 c0 -35 -10 -56 -26 -56 -8 0 -14 -4 -14 -10 0 -5 -6 -10
-14 -10 -7 0 -20 -8 -27 -17 -12 -15 -12 -16 4 -10 24 9 21 0 -4 -14 -15 -8
-19 -8 -15 0 10 15 -5 13 -27 -3 -16 -12 -16 -14 -1 -20 8 -3 99 -6 201 -6
154 0 182 2 171 13 -7 8 -42 17 -77 20 -75 8 -88 17 -97 63 -6 31 -44 74 -65
74 -5 0 -9 -11 -9 -24z"/>
<path d="M2473 93 c9 -2 23 -2 30 0 6 3 -1 5 -18 5 -16 0 -22 -2 -12 -5z"/>
</g>
</svg>
